<svg width="256" height="256" viewBox="0 0 256 256" fill="none" xmlns="http://www.w3.org/2000/svg">
<rect width="256" height="256" rx="32" fill="#2563EB"/>
<path d="M128 40C116.954 40 108 48.954 108 60V80H88C76.954 80 68 88.954 68 100V156C68 167.046 76.954 176 88 176H168C179.046 176 188 167.046 188 156V100C188 88.954 179.046 80 168 80H148V60C148 48.954 139.046 40 128 40ZM128 56C130.209 56 132 57.791 132 60V80H124V60C124 57.791 125.791 56 128 56ZM88 96H168C170.209 96 172 97.791 172 100V156C172 158.209 170.209 160 168 160H88C85.791 160 84 158.209 84 156V100C84 97.791 85.791 96 88 96Z" fill="white"/>
<circle cx="128" cy="120" r="8" fill="white"/>
<path d="M128 200L108 216H148L128 200Z" fill="#10B981"/>
<rect x="100" y="186" width="56" height="8" rx="4" fill="#10B981"/>
</svg>